<svg id="Layer_1" data-name="Layer 1" xmlns="http://www.w3.org/2000/svg" viewBox="0 0 138.43 120.93"><defs><style>.cls-1{fill:#d4ac56;}</style></defs><path class="cls-1" d="M40.69,16.92V37.63c0,1,6.35,3.95,12.26,3.72a32.09,32.09,0,0,0,12.68-3.72V16.92h35.8c3.23,0,4.39,1.85,4.39,3.69s3,37.88,11.54,50.58S135.15,96.6,137,98s3.7,7.39,0,7.62-95.84-.07-99.07,0C33.3,105.71,15.69,83.19,10.67,71,4.78,56.64.23,30.08.73,22.23c.47-7.16,4.85-5.31,6.7-5.31ZM89.88,53.06h0a3.82,3.82,0,0,0-3.81-3.81H53.2a3.81,3.81,0,0,0-3.81,3.81h0a3.8,3.8,0,0,0,3.81,3.81H86.07A3.81,3.81,0,0,0,89.88,53.06Zm8,16.4h0a3.81,3.81,0,0,0-3.81-3.81H37.42a3.8,3.8,0,0,0-3.81,3.81h0a3.81,3.81,0,0,0,3.81,3.81H94.08A3.82,3.82,0,0,0,97.89,69.46ZM90.11,85.7h0a3.81,3.81,0,0,0-3.81-3.81H45.35a3.81,3.81,0,0,0-3.81,3.81h0a3.8,3.8,0,0,0,3.81,3.81H86.3A3.8,3.8,0,0,0,90.11,85.7Z" transform="translate(-0.7 -1.07)"/><path class="cls-1" d="M.81,68.11v49.58c0,2.77,1.54,4.31,3.39,4.31h97.61a4.62,4.62,0,0,0,4.31-4.31v-4.31H44.85C16.52,113.38.81,68.11.81,68.11Z" transform="translate(-0.7 -1.07)"/><path class="cls-1" d="M49.39,33.32V5.91c0-5.91,7.77-7,7.77,0V33.32Z" transform="translate(-0.7 -1.07)"/></svg>